<?xml version="1.0" encoding="utf-8"?>
<!-- Generator: Adobe Illustrator 16.0.0, SVG Export Plug-In . SVG Version: 6.00 Build 0)  -->
<!DOCTYPE svg PUBLIC "-//W3C//DTD SVG 1.1//EN" "http://www.w3.org/Graphics/SVG/1.1/DTD/svg11.dtd">
<svg version="1.1" id="Layer_1" xmlns="http://www.w3.org/2000/svg" xmlns:xlink="http://www.w3.org/1999/xlink" x="0px" y="0px"
	 width="512px" height="512px" viewBox="0 0 512 512" enable-background="new 0 0 512 512" xml:space="preserve">
<path fill="#4BBE4B" d="M64,0h384c35.347,0,64,28.653,64,64v384c0,35.346-28.653,64-64,64H64c-35.346,0-64-28.654-64-64V64
	C0,28.654,28.654,0,64,0z"/>
<path fill="#4BBE4B" stroke="#FFFFFF" stroke-width="16" d="M85.054,146.092c-2.982,2.82-4.843,6.822-4.843,11.268v184.264
	c0,8.549,6.747,15.479,15.42,15.479h322.736c8.517,0,15.42-6.917,15.42-15.479V157.36c0-4.454-1.832-8.469-4.813-11.293L257,295.611
	L85.054,146.092z M95.639,126.508c-17.011,0-30.801,13.752-30.801,30.655V341.82c0,16.931,13.678,30.654,30.801,30.654h322.72
	c17.012,0,30.802-13.751,30.802-30.654V157.163c0-16.931-13.679-30.655-30.802-30.655H95.639z M257,275.625l153.729-133.744H103.27
	L257,275.625L257,275.625z"/>
</svg>
